<svg xmlns="http://www.w3.org/2000/svg" xmlns:xlink="http://www.w3.org/1999/xlink" version="1.1" x="0px" y="0px" viewBox="0 0 100 100" enable-background="new 0 0 100 100" xml:space="preserve"><rect fill="none" width="100" height="100"></rect><path d="M93.902,34.051L51.322,6.204c-0.798-0.519-1.841-0.519-2.644,0L6.098,34.051C5.415,34.499,5,35.261,5,36.075v46.016  c0,6.669,5.43,12.095,12.097,12.095h65.807C89.574,94.186,95,88.76,95,82.091V36.075C95,35.261,94.591,34.499,93.902,34.051z   M50,11.12l38.16,24.955L50,61.032L11.84,36.075L50,11.12z M9.84,82.091V40.548l35.745,23.371L11.264,86.364  C10.378,85.159,9.84,83.691,9.84,82.091z M82.903,89.346H17.097c-0.459,0-0.912-0.057-1.348-0.138L50,66.811l34.251,22.397  C83.818,89.289,83.368,89.346,82.903,89.346z M90.165,82.091c0,1.601-0.543,3.068-1.424,4.273l-34.32-22.445l35.744-23.371V82.091z   M63.838,42.678c4.137-3.949,4.289-10.527,0.341-14.667c-1.885-1.972-4.499-3.058-7.364-3.058c-2.471,0-4.899,0.843-6.814,2.334  c-1.913-1.491-4.344-2.334-6.814-2.334c-2.865,0-5.48,1.086-7.362,3.058c-3.949,4.14-3.799,10.718,0.319,14.648L50,56.517  L63.838,42.678z M37.477,29.592c1.448-1.52,3.475-2.353,5.709-2.353c2.244,0,4.439,0.867,6.023,2.382L50,30.374l0.791-0.752  c1.584-1.515,3.78-2.382,6.024-2.382c2.236,0,4.263,0.838,5.711,2.349c3.077,3.229,2.958,8.355-0.283,11.456L50,53.287  L37.739,41.024C34.517,37.943,34.4,32.817,37.477,29.592z"></path></svg>